# xmcd
#
# Track frame offsets: 
#        150
#        21908
#        47719
#        62824
#        72808
#        93448
#        104749
#        126125
#        143438
#        165567
#        184416
#        195946
#
# Disc length: 2737 seconds
#
# Revision: 0
# Processed by: cddbd v1.5.2PL0 Copyright (c) Steve Scherf et al.
# Submitted via: ExactAudioCopyFreeDBPlugin 1.0
#
DISCID=a50aaf0c
DTITLE=Lost Dog Street Band - Rage and Tragedy
DYEAR=2016
DGENRE=Country
TTITLE0=September Doves
TTITLE1=Hell's Canyon
TTITLE2=Ole Legg Lee
TTITLE3=Hard Road Again
TTITLE4=Nobody's Baby Now
TTITLE5=I Remember You Well
TTITLE6=Coming Down
TTITLE7=One Shot To Wake
TTITLE8=Can't Get Away from Yourself
TTITLE9=I Hope You're Wrong
TTITLE10='Til I'm Gone
TTITLE11=I Hate to See You Go (But Happy for the Time We Shared)
EXTD=
EXTT0=
EXTT1=
EXTT2=
EXTT3=
EXTT4=
EXTT5=
EXTT6=
EXTT7=
EXTT8=
EXTT9=
EXTT10=
EXTT11=
PLAYORDER=
